# xmcd CD database file
#
# Track frame offsets:
#	187
#	16532
#	32067
#	46352
#	60015
#	74887
#	88962
#	102587
#	106572
#	123375
#	137187
#	143275
#	159082
#	160785
#	173042
#	187112
#
# Disc length: 2712 seconds
#
# Revision: 0
# Processed by: cddbd v1.5.2PL0 Copyright (c) Steve Scherf et al.
# Submitted via: CDex 1.70beta2
#
DISCID=ca0a9610
DTITLE=Herman,Woody - 1944 Vol. II, The Old Gold Radio Shows
DYEAR=1979
DGENRE=Jazz
TTITLE0=Old Gold Radio Show Intro -  	Is You Is Or Is You Ain't (My Baby)
TTITLE1=It Must Be Jelly (Cause Jam Don't Shake Like That)
TTITLE2=Red Top
TTITLE3=Sweet Lorraine
TTITLE4=G.I. Jive
TTITLE5=Jones Beachhead
TTITLE6=Four Or Five Times
TTITLE7=Blues On Parade
TTITLE8=125th Street Prophet
TTITLE9=Somebody Loves Me
TTITLE10=Old Gold Commercial
TTITLE11=Basie's Basement
TTITLE12=Herman, Barber And Jones Skit
TTITLE13=(There'll Be A) Hot Time In The Town Of Berlin
TTITLE14=1-2-3-4 Jump (Woodchoppers)
TTITLE15=Apple Honey
EXTD=YEAR: 1979
EXTT0=
EXTT1=
EXTT2=
EXTT3=
EXTT4=
EXTT5=
EXTT6=
EXTT7=
EXTT8=
EXTT9=
EXTT10=
EXTT11=
EXTT12=
EXTT13=
EXTT14=
EXTT15=
PLAYORDER=
